<?xml version="1.0" standalone="no"?>
<!DOCTYPE svg PUBLIC "-//W3C//DTD SVG 20010904//EN"
 "http://www.w3.org/TR/2001/REC-SVG-20010904/DTD/svg10.dtd">
<svg version="1.0" xmlns="http://www.w3.org/2000/svg"
 width="1025.000000pt" height="1025.000000pt" viewBox="0 0 1025.000000 1025.000000"
 preserveAspectRatio="xMidYMid meet">
<metadata>
Created by potrace 1.11, written by Peter Selinger 2001-2013
</metadata>
<g transform="translate(0.000000,1025.000000) scale(0.100000,-0.100000)"
fill="#000000" stroke="none">
<path d="M7774 9766 c-3 -9 -10 -16 -16 -16 -5 0 -6 5 -3 10 3 6 1 10 -4 10
-6 0 -11 -3 -11 -7 0 -5 -24 -9 -53 -11 -87 -4 -107 -7 -107 -14 0 -5 -5 -8
-11 -8 -5 0 -7 6 -3 13 4 6 -2 3 -14 -7 -17 -14 -22 -16 -22 -5 0 8 -3 10 -8
4 -4 -5 -18 -12 -32 -13 -14 -2 -29 -7 -34 -12 -5 -5 -15 -6 -22 -3 -8 3 -14
0 -14 -7 0 -6 -5 -8 -10 -5 -6 4 -18 1 -27 -7 -12 -9 -15 -9 -9 -1 10 18 -26
4 -41 -15 -11 -13 -13 -13 -13 -1 -1 10 -4 10 -14 -4 -11 -14 -15 -15 -19 -5
-4 11 -6 11 -6 0 -1 -7 -5 -10 -11 -7 -5 3 -10 2 -10 -4 0 -6 -7 -7 -17 -4
-12 5 -14 3 -8 -7 6 -10 4 -12 -8 -7 -9 3 -19 2 -22 -4 -4 -5 -11 -7 -16 -4
-5 4 -9 1 -9 -5 0 -6 -4 -8 -10 -5 -5 3 -10 2 -10 -3 0 -9 -33 -22 -54 -21 -5
1 -12 -4 -16 -11 -4 -6 -16 -12 -28 -13 -11 0 -19 -4 -16 -8 2 -4 -6 -11 -18
-15 -13 -4 -25 -10 -28 -15 -3 -4 -12 -9 -20 -11 -8 -2 -23 -11 -32 -21 -9
-10 -24 -20 -33 -21 -9 -1 -20 -9 -25 -16 -5 -8 -12 -12 -15 -8 -3 3 -17 -4
-29 -16 -43 -40 -76 -65 -76 -58 0 4 -7 -2 -15 -12 -8 -11 -15 -17 -15 -13 0
4 -20 -13 -45 -39 -25 -25 -45 -42 -45 -38 0 4 -14 -8 -31 -27 -17 -19 -35
-33 -40 -32 -5 2 -9 -6 -9 -18 0 -11 -3 -19 -7 -17 -5 2 -25 -13 -45 -34 -21
-21 -34 -38 -30 -39 4 0 -3 -4 -16 -10 -14 -5 -20 -13 -16 -21 5 -8 2 -9 -10
-5 -10 4 -15 3 -11 -3 3 -6 -1 -13 -9 -16 -9 -3 -13 -10 -10 -15 3 -5 -1 -9
-8 -9 -7 0 -22 -13 -33 -29 -10 -16 -22 -28 -25 -27 -3 1 -15 -8 -27 -21 -12
-13 -19 -23 -16 -23 4 0 -8 -11 -27 -25 -19 -14 -30 -25 -25 -25 5 0 -5 -11
-23 -23 -17 -13 -30 -26 -29 -28 3 -4 -70 -78 -78 -79 -3 0 -6 -3 -7 -7 -1 -5
-33 -39 -72 -77 -39 -38 -70 -73 -68 -78 1 -5 -1 -8 -5 -5 -11 6 -63 -50 -54
-58 3 -4 1 -5 -4 -3 -6 1 -55 -42 -109 -97 -55 -55 -102 -99 -105 -98 -4 1 -8
-8 -9 -21 -1 -16 4 -22 18 -22 11 0 20 4 20 9 0 6 5 5 13 0 6 -5 30 -11 51
-12 21 -1 48 -7 59 -12 14 -8 18 -8 12 1 -4 7 5 6 23 -4 16 -8 32 -12 36 -9 3
4 6 1 6 -5 0 -7 3 -11 8 -11 21 4 53 -2 49 -8 -3 -5 9 -9 26 -10 18 -2 33 -7
35 -13 2 -5 10 -10 18 -10 8 0 14 -5 14 -11 0 -5 4 -8 9 -4 6 3 29 -8 53 -24
23 -16 46 -27 50 -25 5 3 8 0 8 -5 0 -6 7 -11 15 -11 8 0 15 -7 15 -17 0 -9 3
-14 6 -10 6 6 29 -11 70 -50 13 -13 28 -23 34 -23 6 0 9 -4 6 -8 -3 -5 6 -16
20 -26 13 -11 24 -26 24 -34 0 -8 3 -13 6 -10 5 6 54 -38 54 -48 0 -10 28 -34
39 -34 6 0 11 -4 11 -9 0 -5 23 12 50 39 28 27 50 53 50 60 0 6 5 8 10 5 6 -3
10 0 10 7 0 7 16 24 34 38 19 14 33 27 32 30 -4 8 42 48 48 42 3 -3 6 2 6 12
0 9 5 14 10 11 6 -3 10 1 10 10 0 9 5 13 10 10 6 -3 10 1 10 9 0 9 7 16 15 16
8 0 15 4 15 10 0 13 98 109 105 102 3 -3 5 0 5 5 0 14 165 183 179 183 6 0 8
8 4 18 -3 9 -3 14 1 10 10 -8 47 23 40 34 -3 4 1 8 8 8 8 0 20 9 28 19 7 11
18 17 23 14 6 -3 7 -1 4 4 -8 13 17 36 28 25 5 -4 5 -1 1 6 -4 6 -2 12 4 12 6
0 8 5 5 10 -3 6 -1 10 4 10 10 0 18 6 73 53 12 9 25 17 30 17 5 0 6 5 2 12 -5
8 -2 9 10 5 13 -5 17 -3 13 7 -4 10 0 14 14 11 10 -2 19 0 19 5 0 9 40 25 53
22 5 -1 6 2 2 8 -5 9 1 12 21 9 4 0 10 4 14 11 6 10 24 17 53 19 5 1 6 5 3 9
-2 4 4 9 15 10 42 4 49 6 49 13 0 4 12 6 26 3 18 -3 23 -1 18 7 -5 9 -1 10 14
7 13 -4 22 -1 22 5 0 6 3 8 6 4 3 -3 17 -2 31 4 13 5 22 5 19 1 -2 -4 4 -8 14
-8 10 0 17 3 14 7 -6 10 60 16 91 8 22 -7 24 -5 14 7 -10 12 -8 13 12 6 13 -4
43 -8 67 -7 31 1 42 -3 43 -15 0 -10 3 -9 9 5 5 11 9 15 9 9 1 -6 13 -10 28
-8 15 1 32 -1 38 -5 5 -5 20 -7 33 -6 12 1 22 -2 22 -6 0 -4 9 -6 20 -4 11 2
20 0 20 -6 0 -5 11 -9 24 -9 14 0 28 -5 31 -11 4 -6 13 -8 20 -5 7 2 21 -4 30
-14 9 -10 23 -16 30 -14 7 3 16 1 20 -5 3 -6 15 -11 26 -11 12 0 17 -4 13 -11
-4 -7 -1 -10 7 -7 8 3 22 -4 31 -14 9 -11 19 -19 22 -19 20 3 26 -1 26 -14 0
-8 9 -15 20 -15 11 0 20 -4 20 -10 0 -5 6 -10 13 -10 6 0 28 -18 47 -40 19
-22 40 -40 45 -40 6 0 19 -14 30 -30 11 -16 25 -30 32 -30 6 0 15 -9 18 -20 3
-11 12 -20 20 -20 8 0 17 -9 20 -20 3 -11 10 -20 14 -20 10 0 363 -350 354
-350 -5 0 0 -5 10 -11 9 -5 17 -17 17 -24 0 -8 5 -15 10 -15 6 0 15 -12 20
-26 6 -14 14 -23 19 -19 6 3 8 -4 6 -15 -2 -11 0 -18 4 -16 8 5 32 -36 37 -64
2 -8 8 -16 13 -18 6 -2 11 -12 11 -22 0 -10 5 -22 11 -25 6 -4 8 -13 5 -21 -3
-8 -1 -14 4 -14 5 0 13 -18 16 -40 4 -22 10 -43 15 -46 4 -2 6 -11 3 -18 -3
-7 2 -21 11 -30 12 -12 13 -16 3 -16 -10 0 -9 -3 2 -10 13 -9 13 -10 0 -10 -9
0 -11 -3 -5 -8 14 -10 17 -32 4 -32 -6 0 -3 -7 6 -16 13 -14 14 -19 3 -25 -7
-5 -8 -9 -2 -9 11 0 12 -69 1 -87 -4 -6 -3 -14 1 -17 15 -9 4 -116 -13 -128
-6 -5 -6 -8 1 -8 15 0 11 -40 -5 -50 -11 -6 -11 -9 0 -13 9 -4 10 -6 2 -6 -7
-1 -10 -8 -7 -16 4 -8 1 -15 -4 -15 -6 0 -9 -9 -7 -20 2 -11 -1 -20 -6 -20 -6
0 -7 -4 -4 -10 3 -5 2 -10 -4 -10 -5 0 -8 -11 -7 -24 2 -15 -3 -27 -12 -31 -8
-3 -12 -8 -9 -12 4 -3 1 -15 -5 -27 -7 -11 -12 -25 -13 -29 0 -4 -6 -11 -13
-16 -7 -4 -12 -12 -11 -17 4 -16 -13 -44 -22 -38 -5 3 -9 -1 -9 -10 0 -8 -12
-28 -26 -45 -14 -17 -22 -31 -18 -31 5 0 -8 -15 -28 -34 -20 -19 -34 -37 -30
-40 3 -3 -3 -6 -12 -6 -12 0 -16 -5 -12 -15 3 -9 0 -15 -10 -15 -8 0 -17 -7
-20 -15 -3 -8 -14 -17 -25 -20 -10 -4 -18 -9 -17 -13 3 -10 -119 -132 -132
-132 -5 0 -7 -7 -4 -15 4 -8 1 -15 -6 -15 -14 0 -60 -46 -60 -61 0 -5 -3 -8
-7 -7 -5 2 -39 -28 -77 -66 -39 -38 -63 -66 -55 -62 7 4 5 1 -5 -8 -10 -8 -23
-13 -29 -9 -6 3 -7 1 -4 -5 4 -5 -6 -22 -23 -35 -16 -14 -30 -31 -30 -37 0 -6
-3 -9 -7 -7 -5 3 -14 -1 -21 -9 -7 -8 -10 -14 -7 -14 3 0 0 -6 -7 -14 -7 -8
-16 -12 -20 -10 -4 2 -9 -5 -13 -16 -4 -11 -9 -19 -13 -17 -4 2 -15 -4 -24
-15 -10 -10 -15 -18 -12 -18 4 0 -10 -13 -31 -30 -21 -16 -35 -30 -31 -30 4 0
1 -6 -6 -14 -7 -8 -17 -12 -21 -9 -12 7 12 -38 28 -54 7 -7 15 -9 19 -6 3 4 6
-1 6 -10 0 -9 7 -17 17 -17 9 0 14 -3 10 -6 -8 -8 16 -33 26 -27 4 2 7 -3 7
-11 0 -9 7 -16 16 -16 8 0 12 -4 9 -10 -3 -5 1 -10 10 -10 9 0 14 -4 10 -9 -3
-5 4 -12 15 -16 11 -3 20 -12 20 -19 0 -7 12 -18 26 -24 14 -7 23 -15 21 -20
-3 -4 1 -13 9 -20 8 -7 14 -10 14 -7 0 3 16 -12 35 -32 19 -20 35 -41 35 -45
0 -4 4 -8 9 -8 14 0 101 -87 94 -94 -4 -3 -1 -6 6 -6 7 0 53 -42 103 -92 52
-53 93 -88 95 -80 3 6 11 12 19 12 8 0 14 7 14 16 0 9 9 18 20 21 11 3 17 9
14 14 -3 5 3 9 12 9 10 0 15 3 12 6 -7 7 148 164 162 164 6 0 9 3 9 8 -4 22 3
31 19 25 9 -3 14 -3 10 1 -3 4 22 37 58 72 35 35 64 69 64 74 0 6 6 10 14 10
7 0 21 11 30 25 9 14 21 23 27 20 5 -4 8 -3 7 2 -4 11 27 54 34 47 4 -3 9 4
13 15 3 12 11 19 16 16 5 -4 9 -1 9 5 0 6 5 8 12 4 6 -4 8 -3 4 4 -3 6 3 17
14 25 11 7 18 16 17 18 -2 2 5 12 15 22 10 9 18 14 18 10 0 -4 10 7 23 24 12
16 27 32 32 34 6 2 9 7 8 11 -2 5 4 8 12 8 8 0 14 3 12 8 -1 4 20 28 46 55 27
26 45 47 41 47 -4 0 8 14 27 31 19 18 27 29 19 25 -9 -5 -8 -2 3 7 9 8 17 17
17 20 0 3 11 18 25 33 14 15 23 29 21 31 -2 2 7 16 20 30 14 15 27 37 30 50 4
12 10 20 15 17 9 -5 11 0 13 29 1 6 9 21 18 31 10 10 15 23 12 28 -3 4 -1 8 4
8 9 0 50 81 44 88 -2 2 5 10 15 18 14 11 15 13 3 14 -12 1 -12 3 2 14 10 7 19
22 21 32 1 10 6 25 10 32 5 6 5 17 1 24 -5 7 -3 8 6 3 10 -6 12 -4 7 8 -3 10
-2 17 4 17 6 0 8 4 4 9 -3 5 -1 12 5 16 6 4 8 10 5 15 -3 5 -1 11 5 15 6 4 8
11 5 16 -4 5 -1 9 5 9 8 0 8 6 0 20 -8 15 -7 18 2 15 8 -3 14 4 15 20 5 55 8
65 15 65 4 0 4 7 1 17 -5 12 -3 14 7 8 10 -6 10 -4 2 11 -8 14 -6 21 6 31 15
12 15 12 -3 6 -19 -6 -19 -6 -2 14 9 11 14 23 11 26 -4 4 -1 13 6 22 8 10 9
15 1 15 -7 0 -8 8 -2 23 5 13 8 38 7 55 -1 17 1 29 5 26 4 -2 7 85 6 195 -1
109 -6 197 -10 194 -4 -2 -6 11 -4 31 2 19 0 37 -4 38 -5 2 -10 22 -12 46 -1
23 -5 42 -8 42 -3 0 -5 10 -4 23 1 12 -5 31 -14 41 -9 11 -10 16 -3 12 15 -9
15 -6 -3 37 -8 19 -11 37 -8 41 4 3 1 6 -6 6 -7 0 -9 4 -6 10 3 5 -1 23 -10
39 -18 36 -19 44 -2 36 6 -4 4 0 -5 8 -10 8 -15 17 -11 20 3 4 1 7 -5 7 -6 0
-9 7 -6 15 4 8 1 15 -6 15 -6 0 -9 4 -6 8 2 4 -6 29 -20 56 -13 26 -22 52 -19
56 3 5 -4 14 -16 21 -17 9 -19 13 -8 20 10 6 11 9 1 9 -12 0 -37 47 -34 63 1
4 -2 7 -7 7 -5 0 -14 14 -21 30 -7 17 -17 30 -22 30 -5 0 -6 5 -3 10 3 6 1 10
-4 10 -6 0 -11 5 -11 11 0 11 -50 82 -62 87 -5 2 -8 10 -8 18 0 8 -4 14 -10
14 -5 0 -10 7 -10 15 0 8 -9 20 -20 27 -11 7 -20 19 -20 26 0 7 -4 10 -10 7
-5 -3 -10 -1 -10 5 0 5 -13 24 -30 42 -16 17 -30 35 -30 39 0 5 -7 9 -16 9 -8
0 -12 5 -9 10 3 6 -1 10 -10 10 -9 0 -13 5 -10 10 3 6 -1 10 -10 10 -9 0 -13
5 -10 10 3 6 -1 10 -10 10 -9 0 -14 3 -12 8 4 9 -40 52 -47 44 -3 -3 -6 2 -6
11 0 8 -9 19 -20 22 -11 3 -20 13 -20 21 0 8 -7 14 -16 14 -8 0 -13 4 -10 8 3
5 -4 15 -16 23 -11 8 -34 29 -51 46 -16 18 -34 30 -40 26 -6 -3 -7 -1 -3 6 4
6 0 14 -8 17 -9 3 -16 13 -16 21 0 8 -3 12 -7 10 -10 -4 -103 90 -95 97 3 3 0
6 -6 6 -15 0 -52 37 -52 52 0 6 -3 9 -6 5 -4 -3 -25 12 -47 33 -22 22 -45 37
-51 33 -6 -3 -8 -3 -4 2 8 8 -6 23 -37 42 -11 6 -19 16 -17 23 1 6 -2 9 -7 6
-5 -4 -17 1 -25 10 -9 8 -16 12 -16 8 0 -4 -8 3 -19 14 -10 12 -21 19 -25 15
-3 -3 -6 -1 -6 6 0 7 -4 9 -10 6 -5 -3 -10 1 -10 9 0 10 -7 13 -20 11 -11 -2
-18 0 -15 5 3 5 -4 14 -15 20 -11 6 -20 7 -20 3 0 -4 -5 0 -11 10 -6 9 -14 15
-20 12 -5 -4 -9 -2 -9 4 0 5 -15 15 -34 21 -19 6 -36 15 -38 21 -2 5 -14 11
-27 14 -12 2 -29 9 -35 15 -7 5 -16 7 -19 3 -4 -3 -9 1 -13 10 -3 9 -14 14
-25 12 -10 -2 -19 0 -19 6 0 5 -8 9 -18 9 -10 0 -23 5 -30 12 -7 7 -12 8 -12
3 0 -5 -7 0 -16 11 -8 10 -13 13 -9 7 8 -16 0 -16 -26 -2 -11 6 -30 12 -41 14
-12 3 -25 10 -30 17 -6 10 -8 9 -8 -2 0 -9 -3 -11 -8 -5 -8 11 -25 16 -59 19
-13 0 -23 5 -23 10 0 5 -7 3 -15 -4 -13 -11 -14 -10 -8 6 6 16 4 17 -8 7 -11
-9 -19 -9 -26 -2 -5 5 -28 11 -51 13 -23 2 -45 6 -49 9 -3 4 -12 2 -19 -4 -8
-7 -14 -7 -19 1 -3 5 -17 10 -31 10 -14 0 -35 5 -47 12 -21 10 -21 10 -7 -7
14 -17 14 -18 -7 -6 -13 6 -23 8 -23 4 0 -4 -5 -1 -10 7 -6 10 -10 11 -10 3 0
-9 -7 -10 -23 -4 -13 5 -30 5 -37 1 -9 -5 -20 -4 -27 2 -10 8 -13 7 -13 -3 0
-12 -2 -12 -9 0 -6 9 -11 10 -15 2 -4 -6 -12 -9 -17 -5 -17 10 -59 12 -65 2
-3 -5 -12 -4 -20 3 -11 9 -15 8 -20 -5z"/>
<path d="M4476 8923 c-3 -4 -23 -6 -42 -5 -27 2 -34 -1 -28 -10 5 -10 4 -11
-7 0 -16 15 -33 16 -24 2 8 -13 -17 -8 -27 5 -5 6 -11 5 -16 -3 -5 -8 -16 -10
-27 -6 -14 6 -17 4 -12 -9 4 -11 2 -14 -8 -10 -8 3 -12 10 -8 17 4 6 -1 5 -10
-3 -9 -7 -17 -11 -17 -7 0 4 -13 0 -29 -8 -16 -9 -31 -12 -35 -9 -3 4 -6 0 -6
-8 0 -11 -2 -11 -10 1 -6 10 -10 11 -10 3 0 -7 -9 -13 -20 -13 -11 0 -20 -5
-20 -11 0 -5 -4 -7 -10 -4 -5 3 -10 2 -10 -4 0 -6 -7 -8 -15 -5 -8 4 -17 -1
-21 -9 -3 -9 -11 -14 -18 -11 -7 3 -19 -2 -26 -11 -7 -8 -19 -15 -26 -15 -8 0
-14 -5 -14 -11 0 -5 -4 -7 -10 -4 -5 3 -10 2 -10 -4 0 -5 -9 -13 -21 -16 -11
-4 -33 -20 -50 -35 -16 -16 -29 -27 -29 -24 0 3 -25 -20 -55 -51 -30 -30 -60
-55 -66 -55 -6 0 -7 -5 -2 -12 4 -7 8 -16 9 -20 1 -5 2 -11 3 -14 0 -4 8 -1
16 6 8 7 15 8 15 4 0 -5 9 -15 21 -22 17 -11 20 -11 14 0 -3 7 0 5 9 -6 8 -10
19 -15 25 -11 6 3 11 1 11 -5 0 -7 7 -10 15 -6 9 3 19 -3 25 -14 6 -11 16 -17
25 -14 8 4 15 1 15 -5 0 -6 3 -10 8 -10 22 4 42 -2 37 -11 -3 -5 3 -10 14 -10
11 0 23 -5 26 -10 4 -6 11 -8 16 -5 5 4 9 1 9 -5 0 -6 5 -8 10 -5 6 3 10 1 10
-5 0 -6 5 -8 10 -5 6 3 13 0 16 -8 3 -8 15 -14 27 -13 12 1 28 -4 35 -11 11
-11 16 -10 28 2 9 8 20 15 25 15 6 0 7 6 3 13 -4 6 -4 9 1 5 4 -4 17 -2 29 4
11 7 24 13 29 14 4 1 9 3 12 4 3 1 10 4 15 5 6 1 13 4 18 5 4 2 12 4 17 5 6 1
17 5 25 8 35 13 46 14 64 5 14 -8 17 -7 11 3 -6 9 -2 11 13 7 12 -4 24 -2 27
3 3 4 12 6 20 3 8 -4 12 -10 9 -15 -3 -5 2 -6 10 -3 9 3 13 11 9 18 -3 6 3 2
15 -8 14 -12 22 -14 22 -7 0 7 5 9 10 6 6 -4 7 -11 4 -17 -5 -7 -1 -7 12 0 13
7 24 6 41 -5 13 -8 23 -12 23 -8 0 5 10 0 22 -11 13 -12 18 -13 13 -4 -6 11
-3 10 12 -2 11 -10 24 -18 30 -18 6 0 13 -4 15 -9 2 -5 9 -11 17 -13 7 -2 35
-24 62 -50 26 -27 54 -48 61 -48 9 0 9 -3 -2 -10 -13 -9 -13 -10 0 -10 9 0 27
-13 40 -30 14 -16 31 -29 38 -30 7 0 11 -3 9 -7 -2 -5 19 -30 46 -56 l48 -48
59 59 c32 33 66 62 75 66 10 3 15 12 11 21 -4 10 1 15 14 15 13 0 18 5 14 15
-4 9 0 15 10 15 9 0 16 5 16 10 0 6 7 10 15 10 8 0 14 4 12 9 -1 5 17 27 41
50 23 22 42 45 42 51 0 14 -162 176 -172 172 -8 -2 -12 14 -9 31 1 5 -2 6 -7
3 -5 -3 -14 4 -22 14 -8 10 -17 17 -22 14 -4 -3 -8 2 -8 11 0 8 -10 19 -22 24
-13 5 -31 17 -40 28 -28 31 -46 43 -65 43 -14 0 -15 2 -5 9 10 6 7 10 -12 15
-14 3 -26 11 -26 16 0 5 -7 7 -15 4 -8 -4 -15 -1 -15 5 0 6 -6 10 -12 9 -7 -2
-12 3 -10 10 1 7 -3 12 -10 10 -7 -1 -23 3 -35 10 -13 7 -23 11 -23 8 0 -3
-12 1 -27 9 -15 8 -30 12 -35 9 -4 -3 -8 0 -8 5 0 6 -13 11 -30 11 -16 0 -30
5 -30 11 0 5 -4 8 -9 4 -5 -3 -12 -1 -16 4 -3 6 -12 8 -19 5 -8 -3 -17 -1 -21
5 -4 8 -12 8 -25 1 -13 -7 -21 -7 -26 1 -4 8 -9 7 -15 -2 -6 -10 -9 -10 -9 -2
0 6 -9 10 -20 8 -11 -2 -22 1 -26 7 -4 6 -10 5 -15 -3 -7 -11 -11 -11 -17 -1
-5 7 -12 9 -16 5z"/>
<path d="M3423 8552 c-15 -2 -20 -8 -16 -19 4 -11 2 -14 -5 -9 -8 4 -10 2 -6
-7 3 -8 -2 -17 -10 -20 -9 -4 -13 -13 -10 -22 4 -8 1 -15 -7 -15 -7 0 -9 -3
-6 -7 4 -3 2 -12 -4 -20 -6 -7 -8 -13 -5 -13 4 0 0 -7 -8 -16 -9 -8 -14 -20
-11 -25 4 -5 1 -9 -5 -9 -6 0 -9 -4 -5 -9 3 -5 1 -12 -5 -16 -6 -4 -8 -10 -5
-15 3 -4 -2 -11 -11 -14 -8 -3 -12 -10 -9 -16 3 -5 1 -10 -6 -10 -7 0 -9 -3
-6 -6 3 -4 1 -16 -5 -28 -7 -11 -12 -25 -13 -29 0 -4 -4 -11 -10 -15 -5 -4
-10 -13 -11 -19 -2 -29 -4 -34 -12 -29 -5 3 -9 -1 -10 -9 -1 -8 -3 -22 -4 -30
-1 -8 -5 -15 -10 -15 -4 0 -8 -7 -8 -15 0 -8 -4 -15 -10 -15 -5 0 -7 -7 -4
-15 4 -8 1 -15 -5 -15 -6 0 -8 -7 -4 -17 4 -11 3 -14 -5 -9 -7 4 -12 2 -12 -3
0 -19 -2 -26 -13 -46 -6 -11 -10 -23 -9 -27 1 -5 -3 -8 -9 -8 -5 0 -7 -4 -4
-10 3 -5 2 -10 -4 -10 -5 0 -12 -13 -16 -29 -3 -16 -12 -35 -20 -41 -7 -6 -12
-20 -10 -31 2 -11 0 -17 -6 -14 -8 6 -13 -8 -10 -27 0 -5 -4 -8 -10 -8 -5 0
-7 -4 -4 -10 3 -5 2 -10 -4 -10 -5 0 -12 -13 -16 -30 -4 -16 -11 -30 -15 -30
-5 0 -7 -7 -4 -15 4 -8 2 -15 -4 -15 -9 0 -18 -20 -20 -44 0 -5 -6 -12 -14
-17 -7 -4 -13 -14 -14 -21 -3 -33 -5 -39 -12 -34 -4 2 -9 -5 -9 -16 -1 -12 -7
-24 -13 -28 -7 -4 -11 -9 -9 -11 4 -8 -25 -79 -33 -79 -4 0 -7 -3 -6 -7 3 -13
-31 -86 -50 -107 -9 -11 -11 -16 -4 -12 7 4 4 -8 -7 -27 -11 -19 -17 -38 -14
-41 4 -3 1 -6 -5 -6 -7 0 -12 -12 -12 -26 0 -14 -4 -23 -10 -19 -9 6 -14 -8
-11 -27 0 -5 -4 -8 -10 -8 -5 0 -7 -4 -4 -10 3 -5 1 -10 -5 -10 -6 0 -9 -4 -6
-9 3 -4 -1 -17 -9 -27 -8 -10 -15 -27 -15 -37 0 -10 -4 -16 -8 -13 -4 2 -9 -5
-9 -17 -1 -12 -7 -23 -13 -25 -5 -2 -8 -8 -4 -13 3 -5 0 -9 -7 -9 -7 0 -10 -3
-6 -6 3 -4 -5 -27 -18 -52 -13 -25 -21 -50 -18 -55 3 -6 1 -7 -4 -4 -9 6 -22
-17 -19 -33 1 -3 -7 -18 -17 -33 -9 -15 -14 -27 -10 -27 4 0 -2 -7 -13 -15
-14 -11 -16 -15 -4 -15 12 0 10 -4 -4 -15 -11 -8 -17 -15 -13 -15 4 0 1 -10
-8 -23 -8 -13 -12 -27 -8 -30 3 -4 1 -7 -5 -7 -7 0 -12 -6 -12 -14 0 -8 -7
-22 -16 -30 -8 -9 -13 -16 -9 -16 3 0 0 -10 -7 -22 -7 -13 -11 -27 -10 -32 2
-4 -4 -13 -13 -20 -9 -6 -17 -21 -18 -34 0 -12 -5 -22 -10 -22 -4 0 -5 -4 -2
-10 3 -5 1 -10 -4 -10 -6 0 -11 -9 -11 -20 0 -11 -4 -20 -9 -20 -5 0 -11 -14
-15 -31 -4 -20 -10 -28 -17 -23 -7 4 -9 3 -6 -3 7 -12 -16 -77 -24 -69 -3 3
-6 -4 -6 -16 -1 -12 -7 -24 -13 -28 -7 -4 -12 -10 -12 -13 0 -21 -12 -47 -22
-47 -7 0 -6 -4 2 -9 11 -7 10 -9 -3 -15 -9 -3 -13 -10 -10 -16 3 -5 1 -10 -5
-10 -6 0 -9 -4 -5 -9 3 -6 -3 -14 -12 -20 -14 -8 -15 -10 -3 -11 10 0 11 -3 3
-8 -6 -4 -13 -14 -15 -22 -2 -8 -9 -21 -16 -28 -7 -8 -10 -18 -7 -23 4 -5 1
-9 -5 -9 -6 0 -9 -4 -5 -9 3 -5 1 -12 -5 -16 -6 -4 -8 -10 -5 -15 3 -4 -2 -11
-11 -14 -8 -3 -12 -10 -9 -16 3 -5 2 -10 -4 -10 -6 0 -8 -7 -5 -15 4 -8 2 -15
-4 -15 -6 0 -13 -13 -17 -30 -4 -16 -11 -30 -16 -30 -6 0 -8 -4 -5 -9 4 -5 2
-11 -4 -13 -5 -1 -11 -14 -14 -28 -2 -14 -9 -24 -17 -22 -9 2 -9 -1 2 -14 9
-12 9 -15 2 -10 -8 4 -13 1 -13 -8 0 -9 -6 -16 -12 -16 -10 0 -10 -2 0 -9 11
-7 10 -9 -3 -15 -9 -3 -13 -10 -10 -16 3 -5 1 -10 -5 -10 -6 0 -8 -4 -5 -10 3
-5 1 -10 -6 -10 -7 0 -9 -3 -6 -6 3 -4 1 -16 -5 -28 -7 -11 -11 -24 -10 -28 1
-5 -3 -8 -9 -8 -5 0 -7 -4 -4 -10 3 -5 2 -10 -3 -10 -6 0 -13 -12 -17 -27 -3
-16 -13 -35 -21 -44 -7 -8 -15 -25 -17 -38 -2 -12 -10 -27 -18 -32 -8 -5 -10
-9 -5 -9 5 0 3 -7 -4 -15 -7 -8 -9 -15 -5 -15 5 0 0 -10 -11 -22 -13 -14 -14
-19 -4 -14 8 4 6 0 -4 -8 -11 -9 -16 -16 -12 -16 5 0 3 -6 -3 -13 -6 -8 -8
-17 -4 -20 3 -4 1 -7 -5 -7 -7 0 -12 -9 -12 -20 0 -11 -5 -20 -11 -20 -5 0 -7
-4 -4 -10 3 -5 1 -10 -5 -10 -7 0 -10 -7 -6 -15 3 -8 2 -15 -3 -15 -8 0 -24
-38 -22 -52 1 -5 -3 -8 -8 -8 -7 0 -13 -14 -21 -48 -1 -4 -7 -10 -14 -14 -7
-4 -12 -19 -11 -33 2 -14 -1 -23 -6 -19 -8 5 -13 -9 -10 -28 0 -5 -4 -8 -9 -8
-5 0 -10 -3 -9 -7 3 -18 -14 -52 -22 -47 -5 3 -6 -2 -3 -10 3 -9 1 -16 -6 -16
-6 0 -8 -4 -5 -10 3 -5 1 -10 -5 -10 -6 0 -9 -4 -5 -9 3 -5 1 -12 -5 -16 -6
-4 -8 -11 -5 -16 4 -5 -1 -12 -9 -15 -9 -3 -13 -10 -10 -15 3 -5 1 -9 -4 -9
-6 0 -8 -10 -4 -22 4 -16 2 -19 -8 -13 -10 6 -12 4 -7 -8 3 -10 3 -17 -1 -17
-7 0 -42 -72 -42 -86 0 -4 -8 -13 -17 -21 -10 -8 -12 -11 -4 -7 11 5 10 1 -2
-17 -9 -13 -17 -32 -17 -42 0 -10 -5 -15 -10 -12 -6 4 -9 3 -8 -2 1 -4 -6 -23
-15 -40 -10 -18 -13 -33 -7 -33 5 0 10 5 10 10 0 6 4 10 10 10 11 0 65 52 65
63 0 4 4 8 10 10 15 3 52 41 48 49 -2 4 6 9 17 13 11 4 18 11 15 16 -4 5 2 9
11 9 10 0 15 3 12 6 -3 3 66 77 153 164 87 87 159 163 159 170 0 6 5 8 10 5 6
-3 10 -1 10 5 0 6 5 8 12 4 6 -4 8 -3 5 3 -7 10 33 49 46 45 5 -1 6 1 3 6 -2
4 6 16 19 26 14 10 22 23 19 28 -3 4 0 7 8 6 7 -2 12 3 11 10 -2 6 1 12 5 12
12 0 82 66 82 78 0 6 9 14 20 17 11 3 20 13 20 21 0 8 3 13 8 11 4 -2 24 14
44 35 20 21 34 38 30 38 -3 0 13 14 36 31 23 17 42 37 42 45 0 9 5 12 10 9 6
-3 10 -3 10 2 0 14 47 63 54 56 3 -3 6 1 6 10 0 9 7 17 17 17 9 0 14 3 10 6
-7 8 17 34 32 34 6 0 11 4 11 9 0 13 108 121 121 121 6 0 7 5 4 10 -3 6 1 10
10 10 9 0 14 4 11 8 -6 10 38 52 54 52 5 0 7 8 3 18 -3 9 -3 14 1 10 4 -3 35
21 68 55 33 34 65 61 70 59 6 -2 8 4 5 13 -4 8 -2 15 3 15 15 0 50 33 44 42
-3 4 0 8 5 8 15 0 51 37 43 44 -3 3 2 6 11 6 9 0 17 7 17 16 0 8 3 14 8 11 8
-4 86 72 90 88 1 6 8 10 15 10 6 1 11 6 9 13 -1 7 4 12 11 12 7 0 20 9 30 20
9 11 14 20 12 20 -3 0 18 23 46 50 28 28 55 50 60 50 5 0 9 6 9 13 0 14 56 67
64 60 2 -2 7 5 11 16 3 11 15 23 25 26 11 3 19 9 18 13 -3 10 303 317 313 315
5 -2 5 5 2 14 -4 11 -3 14 5 9 8 -4 12 -1 12 10 0 10 3 15 6 11 7 -6 74 60 74
73 0 5 9 12 20 15 11 4 19 9 17 13 -1 4 12 21 30 39 18 17 33 30 33 28 0 -3
10 6 23 18 13 12 22 24 21 27 -3 9 24 29 30 23 3 -4 6 -2 6 4 0 5 9 20 20 33
11 13 20 19 20 15 0 -5 6 0 14 10 8 11 12 23 9 28 -2 4 -1 6 4 5 10 -4 159
143 156 154 -3 7 12 12 30 9 4 0 7 6 7 14 0 8 4 15 10 15 5 0 16 12 24 28 8
15 17 26 20 25 12 -6 26 -3 23 5 -1 4 23 32 53 62 30 30 54 58 53 62 -2 5 4 8
13 8 9 0 12 5 8 12 -5 8 -2 9 9 5 11 -4 17 -1 17 8 0 8 9 20 20 27 11 7 20 19
20 27 0 8 3 11 6 8 4 -4 20 10 35 30 16 20 29 32 29 28 0 -5 9 2 20 15 11 13
20 27 20 32 0 5 4 6 10 3 5 -3 15 5 21 19 7 14 15 23 20 21 4 -3 10 4 14 15 4
11 10 18 15 15 5 -3 11 4 15 15 4 11 10 18 15 15 5 -3 11 3 15 14 3 11 13 22
21 25 8 3 12 10 9 16 -3 5 -2 10 2 10 5 0 10 13 11 29 2 23 -2 29 -15 27 -10
-2 -20 0 -23 5 -3 4 -12 9 -20 11 -8 2 -21 9 -28 16 -8 7 -18 10 -23 7 -5 -4
-9 -1 -9 5 0 6 -4 9 -9 6 -4 -3 -17 1 -27 9 -10 8 -27 15 -37 15 -10 0 -15 5
-12 10 4 6 -5 10 -19 10 -14 0 -26 5 -26 12 0 6 -3 8 -7 5 -3 -4 -12 1 -20 11
-8 9 -12 11 -8 5 3 -7 1 -13 -4 -13 -6 0 -11 4 -11 9 0 8 -37 24 -52 22 -5 -1
-8 4 -8 10 0 6 -9 8 -21 4 -12 -4 -19 -3 -16 2 3 5 -3 15 -15 22 -16 10 -19
10 -12 -1 9 -15 -25 9 -38 27 -4 6 -8 6 -8 1 0 -4 -12 -1 -26 9 -18 11 -24 13
-19 4 5 -8 -1 -6 -12 4 -11 9 -23 17 -28 17 -5 0 -17 8 -28 18 -11 9 -17 11
-13 4 7 -11 4 -11 -15 0 -13 7 -26 16 -29 20 -3 3 -14 8 -25 10 -11 1 -26 8
-33 15 -7 7 -19 10 -27 7 -9 -4 -15 0 -15 9 0 10 -7 15 -20 12 -11 -2 -20 0
-20 6 0 5 -7 9 -15 9 -8 0 -15 4 -15 8 0 4 -10 8 -22 9 -11 1 -24 6 -27 11 -6
10 -45 32 -56 32 -3 0 -3 -6 0 -12 4 -7 -1 -4 -9 6 -9 11 -16 16 -16 11 0 -5
-7 0 -16 11 -8 10 -12 13 -8 5 5 -11 1 -10 -17 2 -13 9 -31 17 -41 17 -10 0
-18 5 -18 10 0 6 -7 10 -15 10 -8 0 -15 5 -15 11 0 5 -5 7 -11 4 -5 -4 -18 0
-29 10 -10 9 -27 17 -39 18 -11 1 -21 5 -21 9 0 4 -6 8 -14 8 -8 0 -22 7 -30
16 -12 12 -16 12 -16 2 0 -8 -3 -9 -8 -2 -7 10 -28 20 -45 22 -4 1 -15 8 -24
17 -8 9 -22 14 -29 11 -8 -3 -14 -2 -14 2 0 4 -15 13 -32 21 -18 8 -35 17 -38
20 -3 4 -15 5 -27 3z"/>
<path d="M1354 8478 c-4 -7 -2 -8 4 -4 7 4 12 2 12 -3 0 -6 -4 -11 -9 -11 -6
0 -10 -8 -10 -17 0 -26 -8 -98 -10 -98 -1 0 -4 -14 -7 -32 -6 -50 -8 -57 -19
-65 -6 -5 -5 -8 4 -8 11 0 11 -3 0 -17 -12 -15 -12 -16 1 -8 12 7 13 6 4 -6
-6 -8 -12 -32 -13 -53 -1 -22 -5 -44 -9 -50 -3 -6 -5 -19 -3 -30 2 -13 -1 -16
-11 -10 -10 6 -10 4 1 -9 7 -9 9 -17 4 -17 -6 0 -9 -11 -8 -25 2 -14 -1 -25
-7 -25 -6 0 -5 -6 2 -15 10 -12 10 -15 0 -15 -8 0 -11 -9 -8 -25 3 -14 2 -28
-3 -30 -4 -3 -6 -14 -4 -25 2 -11 0 -20 -4 -20 -5 0 -8 -18 -7 -40 1 -22 -1
-40 -5 -40 -5 0 -6 -9 -4 -20 2 -11 0 -22 -5 -25 -5 -3 -8 -19 -6 -36 2 -16 0
-32 -5 -34 -4 -3 -6 -14 -4 -25 2 -11 -2 -20 -8 -20 -7 0 -6 -4 3 -10 9 -6 10
-10 3 -10 -6 0 -10 -9 -8 -20 2 -11 0 -22 -5 -25 -5 -3 -7 -17 -4 -31 3 -14 1
-23 -4 -20 -11 6 -9 -25 3 -43 6 -10 4 -12 -5 -6 -10 6 -12 4 -7 -8 4 -10 1
-17 -6 -17 -8 0 -6 -4 3 -10 12 -7 12 -10 1 -10 -7 0 -11 -6 -8 -13 3 -8 1
-20 -3 -28 -5 -8 -4 -19 3 -28 10 -12 9 -13 -2 -6 -11 6 -13 4 -8 -8 3 -10 2
-17 -2 -17 -5 0 -7 -9 -4 -20 3 -13 0 -20 -8 -20 -11 0 -11 -2 1 -10 10 -7 11
-13 4 -17 -5 -5 -11 -24 -13 -43 -5 -66 -7 -80 -13 -86 -4 -3 -4 -12 -1 -20 3
-8 0 -14 -6 -14 -6 0 -8 -7 -5 -15 4 -8 0 -23 -7 -32 -8 -10 -9 -14 -2 -10 13
8 12 -24 -2 -55 -4 -9 -4 -22 0 -28 3 -5 0 -10 -7 -10 -9 0 -9 -3 2 -10 10 -7
11 -10 2 -10 -8 0 -11 -9 -8 -26 4 -19 1 -24 -9 -21 -10 5 -11 -1 -5 -24 5
-16 5 -29 1 -29 -5 0 -7 -11 -6 -25 2 -14 0 -25 -3 -25 -4 0 -7 -15 -6 -32 0
-18 -4 -39 -9 -45 -5 -7 -7 -13 -3 -13 3 0 1 -11 -4 -24 -6 -17 -5 -26 3 -30
9 -3 9 -5 0 -5 -7 -1 -10 -8 -7 -16 4 -8 2 -15 -3 -15 -5 0 -8 -12 -7 -27 0
-16 -4 -31 -10 -35 -7 -5 -7 -8 2 -8 8 0 10 -5 5 -12 -8 -14 -11 -28 -15 -65
-1 -13 -7 -23 -12 -23 -5 0 -1 -7 10 -16 10 -8 13 -13 7 -9 -7 3 -14 1 -14 -4
-1 -6 -3 -15 -4 -21 -1 -5 -3 -26 -4 -46 -1 -25 -5 -33 -13 -28 -9 5 -9 2 1
-9 8 -11 9 -17 2 -17 -6 0 -9 -13 -7 -30 2 -16 -1 -30 -7 -30 -5 0 -3 -8 4
-17 12 -14 12 -16 0 -8 -11 6 -13 3 -9 -13 4 -12 2 -24 -3 -27 -4 -3 -6 -12
-2 -20 3 -9 -1 -15 -8 -15 -11 0 -11 -3 1 -10 11 -7 11 -10 2 -10 -7 0 -10 -5
-7 -10 4 -6 1 -18 -7 -27 -9 -12 -9 -15 -1 -9 19 11 16 -4 -4 -27 -10 -11 -13
-17 -6 -14 12 8 12 -37 0 -50 -12 -11 -8 -24 6 -18 6 4 3 -1 -7 -9 -15 -12
-16 -16 -5 -16 8 0 10 -3 4 -8 -5 -4 -11 -16 -11 -27 -1 -11 -4 -38 -8 -60 -4
-22 -8 -52 -9 -67 -1 -16 -6 -28 -12 -28 -5 0 -3 -5 5 -10 12 -8 12 -10 1 -10
-11 0 -11 -3 -1 -16 11 -12 11 -15 0 -12 -7 2 -15 -3 -18 -11 -3 -9 0 -11 8
-6 10 6 11 4 4 -6 -10 -16 -11 -20 -13 -55 -1 -16 -5 -23 -13 -18 -7 5 -8 3
-2 -7 12 -20 14 -39 4 -39 -5 0 -7 -9 -5 -20 2 -11 -1 -20 -8 -20 -8 0 -8 -3
0 -11 11 -11 6 -52 -6 -44 -4 2 -7 -4 -7 -13 0 -76 -5 -103 -16 -96 -9 5 -9 2
1 -9 11 -14 11 -17 0 -17 -12 0 -12 -2 0 -9 9 -6 10 -11 2 -15 -6 -4 -11 -19
-11 -34 1 -49 -5 -77 -19 -88 -10 -8 -11 -13 -3 -18 8 -5 8 -15 2 -32 -13 -33
-13 -36 3 -29 6 4 3 -1 -7 -9 -13 -10 -15 -16 -7 -16 11 0 11 -3 1 -15 -6 -8
-9 -18 -6 -24 3 -5 0 -12 -6 -14 -10 -4 -10 -6 0 -6 10 -1 10 -6 2 -21 -6 -11
-8 -20 -4 -20 3 0 0 -8 -7 -17 -12 -15 -12 -16 1 -8 12 7 11 3 -2 -17 -12 -18
-14 -29 -7 -33 7 -5 6 -11 -2 -21 -9 -11 -8 -14 2 -14 12 0 12 -2 0 -9 -8 -5
-11 -16 -8 -25 3 -8 2 -18 -2 -20 -5 -3 -9 -17 -10 -31 -1 -14 -2 -33 -3 -42
0 -10 -8 -26 -16 -36 -15 -16 -14 -17 1 -11 21 8 22 0 1 -20 -10 -10 -11 -16
-3 -16 9 0 8 -4 -1 -15 -10 -12 -10 -15 1 -15 12 0 12 -2 0 -9 -7 -5 -10 -14
-7 -20 4 -6 1 -11 -6 -11 -9 0 -9 -3 2 -10 8 -5 10 -10 4 -10 -7 0 -11 -16
-11 -40 1 -22 5 -40 10 -40 5 0 7 -6 4 -12 -2 -7 2 -25 9 -39 7 -15 11 -29 8
-31 -2 -3 2 -11 11 -18 8 -7 15 -18 15 -25 0 -7 14 -25 30 -38 17 -14 30 -30
30 -34 0 -5 16 -15 35 -23 19 -8 35 -17 35 -22 0 -4 11 -8 25 -8 14 0 25 -4
25 -9 0 -4 12 -8 28 -7 15 1 33 -6 40 -14 8 -8 11 -10 8 -3 -4 7 6 11 29 11
24 0 33 -4 28 -11 -4 -7 0 -7 9 1 10 8 19 9 22 3 4 -6 17 -4 34 5 15 7 33 14
40 14 7 0 10 5 7 10 -6 10 9 15 30 10 6 -1 7 2 3 5 -4 4 -2 17 4 29 7 11 11
24 10 29 -1 4 2 7 7 7 6 0 8 9 6 20 -2 11 -1 19 3 16 4 -2 12 7 19 20 6 13 7
22 3 19 -4 -3 -3 6 3 19 7 13 15 22 19 20 4 -3 5 1 2 9 -3 8 -1 18 5 21 6 4 8
13 5 21 -4 8 1 18 10 21 9 3 13 10 10 15 -3 5 -1 9 5 9 5 0 8 9 6 20 -2 11 1
20 6 20 6 0 7 5 4 10 -3 6 -3 10 2 10 4 0 13 11 20 25 8 19 8 24 0 19 -7 -3
-4 1 5 9 10 8 15 17 11 20 -3 4 -1 13 5 20 7 8 9 17 5 20 -3 4 -1 7 6 7 7 0
10 4 7 9 -3 5 1 12 10 15 13 5 14 9 4 21 -8 9 -8 15 -2 15 11 0 28 38 24 53
-1 4 3 7 9 7 5 0 8 4 4 9 -3 5 -1 12 5 16 6 4 8 11 5 16 -4 5 -2 9 3 9 5 0 12
14 16 31 4 20 10 28 17 23 8 -4 9 -3 5 5 -4 6 -2 18 4 26 7 8 10 22 6 30 -3 8
-2 15 3 15 8 0 22 32 25 55 1 6 6 13 11 17 6 4 10 11 10 15 2 20 30 83 38 83
4 0 6 4 2 9 -3 6 4 26 15 46 11 20 15 33 8 29 -6 -4 -2 7 11 24 12 18 19 32
15 32 -3 0 -1 6 5 13 6 8 8 17 4 20 -3 4 -1 7 6 7 7 0 11 6 8 13 -2 6 2 17 9
22 8 6 15 19 17 30 1 11 6 26 11 33 4 7 6 16 2 19 -3 3 2 12 10 20 8 8 12 19
9 24 -4 5 -1 9 5 9 6 0 8 5 5 10 -3 6 -1 10 5 10 6 0 8 5 5 10 -3 6 -1 10 6
10 8 0 7 5 -2 17 -8 9 -9 14 -2 10 7 -5 18 10 29 40 10 27 23 51 29 55 7 4 11
17 10 30 -1 13 4 29 12 36 7 8 11 18 8 23 -4 5 -1 9 5 9 6 0 9 4 5 9 -3 5 -1
12 5 16 6 4 8 11 5 16 -4 5 1 12 10 15 12 5 13 10 4 20 -9 11 -8 15 5 20 9 3
16 17 16 30 0 13 4 24 10 24 5 0 12 16 16 35 3 19 10 32 15 30 4 -3 6 4 4 15
-2 11 -1 20 3 20 10 0 32 52 26 61 -3 5 0 9 6 9 6 0 8 5 5 10 -3 6 0 13 8 16
9 3 13 13 10 25 -3 10 0 19 6 19 6 0 11 9 11 20 0 11 5 20 11 20 5 0 8 4 4 9
-3 5 -1 12 5 16 6 4 8 10 5 15 -2 4 5 20 17 36 13 15 17 25 10 20 -17 -10 -15
0 4 18 8 9 11 16 4 16 -6 0 -2 10 9 22 11 11 18 25 15 29 -2 4 1 11 7 14 5 4
8 13 5 21 -3 8 1 17 9 20 8 3 11 12 8 21 -4 11 -2 14 5 9 7 -4 10 1 7 14 -2
11 3 24 13 30 14 8 14 9 2 10 -13 0 -13 1 0 10 8 5 16 14 16 20 1 5 3 12 4 15
1 3 4 10 5 15 1 6 4 13 5 18 1 4 2 10 1 15 0 4 3 7 8 7 8 0 25 49 21 59 -1 2
2 7 7 10 4 3 14 17 21 30 11 19 11 22 0 16 -7 -3 -6 -1 2 7 9 7 14 21 12 32
-2 11 0 16 7 12 6 -4 12 0 12 8 1 9 3 21 4 26 1 6 3 15 4 21 0 5 5 8 9 5 5 -3
8 8 7 24 -1 16 2 27 7 24 4 -3 8 0 8 5 0 22 2 26 14 41 8 8 12 23 11 33 -2 9
1 15 6 11 8 -5 13 12 12 43 -1 7 3 11 7 8 6 -4 17 17 17 35 0 3 10 24 22 48
12 23 18 42 15 42 -4 0 0 8 8 18 9 9 14 25 13 35 -2 9 1 15 6 11 5 -3 9 3 9
13 0 11 5 24 11 30 6 6 12 17 13 24 8 41 19 69 27 69 5 0 9 11 9 24 0 13 7 26
15 30 8 3 12 12 9 20 -3 8 0 17 5 21 6 3 9 11 6 16 -4 5 -2 9 4 9 5 0 8 9 6
20 -2 11 0 18 5 15 4 -3 11 8 15 25 4 16 12 30 18 30 8 0 7 3 -1 9 -11 6 -10
10 4 15 16 6 16 8 4 16 -13 8 -12 10 2 10 11 0 15 5 12 15 -4 8 -1 15 6 15 6
0 8 5 5 10 -3 6 -2 10 4 10 5 0 8 9 6 20 -2 11 0 18 6 15 5 -4 9 2 9 12 0 10
7 29 16 41 8 12 12 22 9 22 -3 0 0 10 7 23 7 12 12 25 13 29 0 3 3 10 8 14 4
4 7 16 7 26 0 10 5 18 10 18 6 0 10 11 10 25 0 14 5 25 10 25 6 0 10 9 10 19
0 11 5 23 10 26 6 4 8 11 5 16 -4 5 -2 9 4 9 6 0 8 7 5 15 -4 8 -2 15 4 15 9
0 20 27 28 69 1 8 9 18 16 22 7 5 9 9 4 9 -4 0 -1 11 8 25 9 14 14 25 10 25
-4 0 -1 7 6 15 6 8 9 18 6 24 -3 5 0 11 6 14 21 7 2 19 -31 21 -17 0 -31 5
-31 11 0 5 -5 3 -10 -5 -5 -8 -10 -10 -10 -5 0 10 -28 16 -82 18 -10 1 -18 4
-18 8 0 3 -12 4 -26 1 -15 -3 -24 -1 -21 4 3 5 -17 9 -43 9 -27 -1 -47 2 -45
5 4 6 -20 9 -92 13 -13 1 -23 4 -23 8 0 4 -15 8 -32 7 -38 0 -57 4 -77 16 -11
7 -12 6 -6 -5 8 -12 6 -12 -8 0 -14 11 -17 11 -17 0 0 -12 -2 -12 -9 0 -5 7
-13 11 -19 7 -6 -3 -14 -1 -17 5 -4 6 -18 8 -31 5 -16 -4 -24 -2 -24 6 0 9 -3
8 -10 -2 -7 -12 -10 -12 -10 -1 0 9 -8 11 -24 7 -14 -3 -27 -2 -31 4 -3 5 -13
6 -22 3 -12 -5 -14 -3 -8 8 8 12 6 12 -8 0 -14 -11 -17 -11 -17 0 0 11 -2 11
-10 -1 -7 -12 -10 -12 -10 -1 0 7 -6 11 -15 7 -8 -3 -15 0 -15 7 0 8 -4 6 -10
-3 -6 -9 -10 -11 -10 -3 0 7 -7 10 -15 7 -8 -4 -15 -1 -15 5 0 8 -6 9 -18 2
-11 -6 -23 -6 -28 -1 -5 4 -22 10 -39 11 -16 2 -36 7 -43 13 -8 6 -17 5 -23
-1 -7 -7 -19 -7 -37 3 -15 7 -39 11 -54 10 -16 -2 -28 1 -28 6 0 5 -4 7 -9 4
-5 -4 -21 -2 -35 4 -19 7 -26 6 -26 -3 0 -8 -4 -7 -10 3 -5 8 -10 11 -10 7 0
-4 -9 -3 -20 3 -15 8 -20 8 -20 -2 0 -8 -3 -9 -8 -3 -4 6 -18 12 -32 13 -14 2
-30 8 -35 12 -6 5 -17 5 -25 0 -8 -5 -19 -6 -25 -2 -5 3 -14 7 -20 8 -63 11
-76 11 -81 2z"/>
<path d="M5535 8140 c-4 -6 -13 -9 -21 -6 -8 3 -14 1 -14 -5 0 -6 -5 -7 -10
-4 -6 4 -16 3 -23 -2 -7 -5 -24 -9 -39 -8 -15 0 -24 -3 -21 -9 4 -5 -3 -7 -15
-4 -12 4 -22 2 -22 -3 0 -5 -11 -11 -25 -15 -14 -3 -25 -11 -25 -18 0 -6 -4
-4 -10 4 -8 12 -10 12 -16 -3 -4 -10 -13 -16 -20 -13 -8 3 -14 1 -14 -4 0 -6
-7 -10 -15 -10 -8 0 -15 -5 -15 -11 0 -5 -4 -8 -9 -5 -5 3 -12 -1 -15 -10 -4
-9 -9 -14 -12 -11 -3 3 -17 -6 -30 -20 -13 -14 -24 -22 -24 -17 0 5 -9 -4 -20
-21 -11 -16 -20 -25 -20 -20 -1 6 -6 0 -13 -12 -7 -12 -16 -22 -22 -23 -5 -1
-9 -6 -7 -11 1 -5 -4 -9 -11 -9 -13 0 -53 -41 -49 -50 1 -3 -4 -5 -10 -5 -7
-1 -12 -6 -10 -13 1 -7 -4 -12 -12 -12 -7 0 -22 -12 -32 -26 -10 -15 -54 -62
-96 -105 -43 -43 -78 -83 -78 -89 0 -6 -4 -9 -8 -6 -5 3 -15 -6 -22 -19 -7
-13 -17 -22 -22 -19 -4 3 -8 0 -8 -5 0 -6 -8 -11 -17 -11 -15 0 -16 -2 -3 -10
12 -8 10 -10 -10 -10 -20 0 -22 -2 -10 -10 10 -7 11 -10 2 -10 -14 0 -152
-136 -152 -150 0 -6 -4 -10 -9 -10 -13 0 -111 -100 -111 -112 0 -5 -3 -7 -7
-5 -10 4 -53 -40 -45 -47 3 -3 0 -6 -7 -6 -7 0 -19 -7 -27 -15 -9 -8 -12 -15
-8 -15 4 0 -3 -9 -16 -20 -13 -11 -27 -20 -32 -20 -4 0 -7 -6 -6 -12 2 -7 -2
-12 -9 -11 -6 2 -15 -6 -18 -17 -4 -11 -11 -18 -16 -15 -5 4 -9 -1 -9 -9 0 -9
-7 -16 -16 -16 -8 0 -12 -4 -9 -10 3 -5 -2 -10 -11 -10 -10 0 -15 -3 -11 -6 7
-8 -129 -144 -144 -144 -7 0 -10 -3 -7 -6 8 -7 -34 -50 -44 -46 -7 2 -11 -10
-10 -28 0 -13 -27 -30 -48 -30 -6 0 -9 -3 -8 -7 4 -10 -45 -59 -55 -55 -4 1
-6 -2 -5 -6 2 -4 -16 -27 -39 -49 -24 -23 -43 -47 -43 -53 0 -6 -4 -8 -10 -5
-5 3 -10 -2 -10 -11 0 -10 -3 -15 -6 -11 -8 7 -44 -25 -38 -34 2 -4 -5 -10
-16 -14 -11 -4 -18 -10 -15 -15 3 -4 -5 -10 -16 -13 -12 -3 -18 -10 -15 -15 3
-5 -6 -15 -19 -22 -13 -7 -23 -16 -21 -19 1 -3 -9 -17 -22 -31 -14 -14 -22
-18 -17 -10 4 8 -1 6 -12 -5 -11 -11 -20 -22 -19 -25 3 -8 -83 -88 -89 -82 -3
3 -5 0 -5 -6 0 -17 -37 -52 -46 -44 -4 4 -4 -1 -1 -10 5 -13 1 -18 -13 -18
-11 0 -19 -6 -18 -12 2 -7 -3 -12 -9 -10 -12 2 -17 -10 -14 -31 0 -4 -3 -6 -7
-5 -12 4 -187 -174 -184 -186 2 -6 1 -8 -3 -5 -8 8 -135 -116 -135 -132 0 -7
-3 -10 -6 -7 -7 8 -60 -42 -57 -53 2 -5 0 -9 -5 -9 -4 0 -22 -13 -40 -30 -18
-16 -30 -30 -27 -30 4 0 0 -7 -9 -15 -8 -8 -20 -15 -27 -15 -7 0 -9 -3 -6 -7
4 -3 -4 -14 -19 -23 -14 -10 -25 -20 -25 -24 1 -3 -2 -5 -5 -3 -4 1 -10 -8
-15 -21 -5 -12 -20 -27 -34 -32 -14 -5 -25 -12 -25 -15 0 -4 6 -3 13 0 6 4 5
0 -3 -7 -8 -8 -21 -20 -29 -28 -12 -13 -13 -13 -7 0 4 8 -1 4 -12 -10 -11 -13
-18 -29 -15 -34 3 -5 2 -7 -3 -3 -10 6 -38 -12 -45 -28 -8 -18 -57 -64 -63
-58 -3 4 -6 1 -6 -5 0 -7 -29 -41 -64 -76 -36 -35 -62 -67 -58 -72 4 -4 -1 -4
-10 -1 -10 4 -18 2 -18 -4 0 -13 -52 -65 -62 -62 -4 2 -8 -6 -8 -18 0 -11 -3
-18 -7 -16 -10 5 -63 -50 -55 -57 3 -3 -2 -6 -11 -6 -10 0 -17 -7 -17 -17 0
-9 -3 -14 -6 -10 -7 7 -54 -38 -54 -53 0 -5 -6 -9 -12 -7 -7 1 -12 -4 -11 -10
2 -7 -4 -13 -13 -13 -8 0 -12 -4 -9 -10 3 -5 1 -10 -6 -10 -15 0 -59 -47 -51
-54 3 -3 -2 -6 -12 -6 -9 0 -14 -4 -11 -10 3 -5 -1 -10 -9 -10 -9 0 -16 -4
-16 -9 0 -15 -52 -61 -63 -54 -6 3 -7 1 -3 -6 7 -11 -39 -61 -56 -61 -5 0 -8
-7 -8 -15 0 -8 -8 -15 -17 -15 -9 0 -14 -2 -11 -5 8 -9 -176 -193 -186 -187
-5 3 -6 1 -3 -5 7 -11 -28 -44 -38 -35 -4 4 -5 2 -3 -3 4 -12 -172 -191 -184
-188 -4 2 -4 -5 -1 -14 4 -9 2 -14 -3 -11 -8 4 -46 -28 -51 -45 -2 -4 -5 -7
-8 -7 -8 1 -55 -52 -55 -61 0 -5 -6 -8 -12 -6 -7 1 -12 -3 -11 -10 2 -6 -6
-15 -17 -18 -11 -4 -18 -11 -15 -16 4 -5 -1 -9 -10 -9 -10 0 -13 -5 -9 -12 5
-8 2 -9 -9 -5 -9 3 -16 3 -16 -1 3 -18 -2 -35 -7 -29 -4 4 -15 -3 -25 -15 -11
-11 -19 -17 -19 -12 0 5 -7 0 -15 -10 -8 -11 -15 -16 -15 -10 0 5 -4 4 -8 -1
-8 -12 -58 -45 -67 -45 -4 0 -3 6 0 13 4 6 0 4 -8 -5 -8 -10 -24 -18 -35 -18
-11 0 -24 -5 -27 -10 -5 -8 -11 -8 -20 0 -10 8 -15 8 -20 0 -4 -7 -18 -10 -31
-7 -13 2 -24 0 -24 -5 0 -5 -7 -5 -17 0 -10 5 -23 7 -30 5 -6 -2 -14 1 -18 6
-4 8 -12 8 -25 1 -13 -7 -21 -6 -30 5 -15 18 -34 20 -24 3 4 -7 -2 -5 -13 5
-11 9 -23 14 -26 10 -4 -3 -7 -1 -7 6 0 7 -5 9 -10 6 -6 -3 -10 -1 -10 4 0 6
-7 11 -15 11 -8 0 -15 5 -15 11 0 5 -5 7 -10 4 -6 -3 -13 1 -16 9 -3 9 -12 16
-18 16 -24 0 -102 101 -89 115 5 4 2 5 -4 1 -8 -4 -13 -1 -13 8 0 9 -4 16 -10
16 -5 0 -10 9 -10 19 0 11 -4 23 -10 26 -5 3 -10 15 -10 26 0 14 -4 18 -12 13
-9 -5 -9 -2 1 9 7 9 9 17 4 17 -11 0 -12 7 -12 95 0 91 1 99 10 106 5 3 10 21
12 40 2 20 8 33 16 31 9 -2 9 3 1 18 -9 16 -8 19 6 13 12 -4 15 -3 10 5 -4 7
-2 12 4 12 6 0 8 4 5 10 -3 5 5 21 19 35 14 14 23 25 20 25 -3 0 8 13 24 29
23 23 29 39 30 76 1 26 4 51 7 55 3 5 -1 11 -7 13 -10 4 -10 6 0 6 7 1 10 6 7
11 -3 6 0 10 7 10 9 0 9 3 -2 10 -13 8 -13 13 -2 31 8 11 9 18 3 14 -6 -3 -11
-1 -11 4 0 6 6 11 13 11 9 0 8 3 -2 9 -9 6 -10 11 -2 15 6 4 11 12 11 17 0 6
-6 7 -13 3 -9 -6 -9 -4 -1 7 6 8 10 38 10 66 -1 29 1 53 4 53 3 0 5 31 4 70 0
38 2 67 6 65 9 -6 6 27 -5 44 -6 10 -4 12 5 6 9 -5 10 -2 5 14 -4 14 -2 21 7
22 7 0 4 4 -7 9 -11 5 -14 9 -6 9 8 1 11 8 8 21 -3 11 -2 20 2 20 12 0 7 39
-6 44 -7 3 -13 1 -13 -4 0 -5 -65 -74 -144 -154 -79 -80 -141 -148 -138 -151
3 -3 -2 -5 -11 -5 -10 0 -17 -7 -17 -15 0 -8 -4 -15 -9 -15 -12 0 -65 -54 -69
-71 -2 -7 -13 -22 -25 -34 -12 -12 -23 -28 -25 -36 -2 -7 -8 -15 -13 -17 -5
-2 -9 -9 -9 -15 0 -6 -10 -22 -22 -35 -13 -14 -17 -22 -11 -18 7 4 13 2 13 -3
0 -6 -4 -11 -9 -11 -5 0 -13 -9 -16 -20 -4 -12 -11 -17 -18 -13 -8 4 -7 1 1
-9 10 -12 10 -17 1 -20 -6 -2 -12 -18 -13 -35 0 -17 -4 -29 -7 -27 -9 5 -20
-26 -13 -37 3 -5 0 -9 -6 -9 -6 0 -9 -4 -6 -9 4 -5 0 -12 -6 -14 -10 -4 -9 -6
1 -6 11 -1 11 -4 1 -16 -7 -8 -10 -24 -7 -35 3 -11 1 -20 -3 -20 -5 0 -7 -12
-4 -26 3 -19 1 -24 -8 -18 -8 5 -7 1 2 -11 9 -11 10 -16 3 -11 -7 4 -13 3 -13
-3 0 -5 6 -12 13 -14 10 -4 10 -6 0 -6 -7 -1 -13 -13 -13 -27 0 -17 4 -23 13
-18 9 6 9 4 0 -7 -15 -16 -18 -63 -3 -54 6 3 10 1 10 -4 0 -6 -4 -11 -9 -11
-5 0 -8 -11 -7 -25 0 -14 5 -25 10 -25 5 0 3 -7 -4 -15 -7 -8 -8 -15 -3 -15 5
0 10 -12 11 -26 1 -14 5 -31 9 -37 4 -6 8 -23 9 -37 5 -46 12 -65 23 -62 9 2
9 -3 1 -18 -6 -12 -7 -20 -1 -20 8 0 22 -27 26 -50 0 -3 6 -15 13 -28 7 -12
10 -22 7 -22 -3 0 3 -10 15 -22 11 -12 20 -26 20 -31 0 -6 12 -26 27 -45 15
-20 21 -32 13 -27 -9 5 -11 4 -6 -3 4 -7 14 -12 22 -12 8 0 14 -6 14 -14 0 -8
7 -16 15 -20 8 -3 15 -10 15 -15 0 -14 127 -141 134 -133 3 3 6 0 6 -6 0 -14
78 -92 92 -92 6 0 8 -3 5 -6 -7 -8 31 -44 45 -44 5 0 7 -4 4 -8 -6 -9 29 -42
44 -42 6 0 10 -7 10 -16 0 -8 5 -12 10 -9 6 3 10 -2 10 -11 0 -10 3 -14 6 -11
4 4 19 -9 34 -28 15 -19 30 -32 33 -29 3 3 8 -4 12 -15 3 -12 12 -21 20 -21 8
0 17 -9 20 -20 3 -11 11 -20 16 -20 15 0 39 -26 32 -34 -4 -3 1 -6 11 -6 9 0
15 -4 12 -9 -3 -5 4 -11 15 -14 12 -3 18 -10 15 -16 -4 -5 3 -12 14 -16 11 -3
20 -13 20 -21 0 -8 9 -14 21 -14 11 0 17 -5 14 -10 -3 -6 -1 -10 5 -10 6 0 8
-5 5 -10 -3 -5 -1 -10 5 -10 6 0 54 -44 106 -97 53 -54 102 -96 108 -95 6 2 8
1 4 -3 -8 -8 299 -315 315 -315 6 0 8 -3 4 -6 -7 -8 17 -34 32 -34 5 0 13 -9
16 -20 4 -11 11 -18 16 -15 5 4 9 2 9 -4 0 -10 46 -61 55 -61 10 0 52 -49 47
-54 -3 -3 2 -6 12 -6 9 0 14 -5 11 -10 -3 -5 -3 -10 2 -10 12 0 93 -78 93 -90
0 -5 4 -10 9 -10 12 0 191 -180 191 -192 0 -4 3 -7 8 -6 9 4 58 -45 54 -54 -1
-5 4 -8 12 -8 8 0 17 -7 20 -16 3 -9 11 -12 18 -8 7 4 10 4 6 0 -7 -9 167
-186 183 -186 6 0 8 -4 5 -9 -3 -5 1 -12 10 -15 9 -3 12 -11 8 -18 -4 -7 -4
-10 1 -6 5 5 34 -19 66 -51 31 -33 60 -57 63 -53 3 3 6 1 6 -5 0 -13 79 -93
92 -93 5 0 6 -5 3 -10 -3 -6 1 -10 9 -10 9 0 16 -7 16 -16 0 -8 4 -13 9 -9 5
3 12 -4 16 -15 3 -11 11 -20 17 -20 14 0 58 -47 50 -54 -3 -3 1 -6 9 -6 8 0
23 -14 34 -30 11 -16 23 -30 27 -30 11 0 78 -69 78 -80 0 -5 10 -10 23 -10 18
0 19 -2 7 -10 -8 -5 -10 -10 -5 -10 15 0 105 -85 105 -99 0 -7 5 -9 10 -6 6 3
14 -4 19 -17 6 -13 10 -20 10 -15 1 4 70 -61 154 -145 83 -84 151 -156 149
-161 -1 -5 2 -6 7 -3 5 3 27 -14 49 -39 22 -24 42 -41 46 -38 3 4 6 -1 6 -10
0 -9 7 -17 16 -17 8 0 12 -4 9 -10 -3 -5 2 -10 11 -10 10 0 14 -3 11 -6 -4 -4
9 -19 28 -34 19 -15 32 -30 29 -33 -3 -3 4 -8 15 -12 12 -3 21 -12 21 -20 0
-8 9 -17 20 -20 11 -3 20 -13 20 -21 0 -8 3 -14 8 -14 4 0 33 -25 65 -55 31
-30 57 -49 58 -42 0 6 4 4 8 -6 4 -10 9 -17 12 -15 2 2 15 -7 29 -20 13 -12
32 -22 42 -22 11 0 16 -4 13 -10 -3 -5 0 -10 9 -10 8 0 16 -5 18 -11 2 -5 10
-12 18 -14 35 -8 60 -18 60 -24 0 -4 12 -8 28 -9 15 -1 29 -7 30 -12 2 -6 17
-10 33 -10 16 0 29 -4 29 -9 0 -6 8 -10 18 -10 43 -1 58 -5 65 -15 5 -8 10 -7
16 3 6 9 11 10 15 2 4 -6 25 -11 46 -11 21 0 41 -6 43 -12 4 -10 6 -10 6 0 1
6 8 12 17 12 8 0 12 -5 8 -11 -4 -7 1 -7 16 1 18 9 24 9 30 0 6 -9 9 -9 12 1
4 12 7 12 22 0 14 -12 16 -12 10 4 -6 15 -4 16 14 6 12 -7 22 -8 22 -3 0 5 11
7 24 5 13 -3 27 0 30 6 5 8 13 8 28 0 17 -9 20 -9 15 3 -3 10 1 14 16 13 12
-1 28 2 35 8 8 6 12 5 12 -4 0 -11 2 -11 9 -1 4 7 18 14 29 15 12 1 22 5 22
10 0 4 5 5 10 2 6 -3 10 -1 10 5 0 6 5 8 10 5 6 -3 10 -1 10 5 0 6 4 9 9 6 12
-8 42 4 36 13 -2 4 1 8 8 8 24 1 42 8 61 26 11 9 26 17 33 17 7 0 13 4 13 8 0
5 12 15 28 23 15 8 38 25 51 39 13 14 20 18 16 10 -5 -8 15 9 43 38 29 29 52
58 52 63 0 6 4 7 10 4 5 -3 15 5 21 19 7 14 17 22 25 19 8 -3 14 1 14 10 0 9
11 24 25 35 14 11 25 25 25 32 0 6 4 8 10 5 5 -3 15 5 21 19 7 14 15 24 18 22
3 -2 16 7 29 20 12 13 19 24 15 24 -4 0 7 10 24 21 18 12 32 24 30 27 -1 4 14
23 35 43 21 21 38 35 38 33 0 -2 24 23 54 55 30 33 58 56 62 53 4 -4 4 1 1 11
-4 10 -3 16 2 13 4 -3 18 6 29 19 12 14 27 25 34 25 6 0 8 3 5 7 -4 3 16 27
43 53 27 26 46 51 42 55 -4 5 -2 5 4 2 14 -8 37 17 26 27 -4 4 -2 6 3 4 12 -4
81 61 77 73 -1 5 3 9 8 9 12 0 255 243 277 277 9 13 18 22 22 20 3 -1 22 14
42 35 21 21 35 38 33 38 -3 0 1 6 8 14 7 8 16 12 21 9 4 -2 7 0 7 5 0 10 52
69 57 65 2 -2 2 -1 1 2 -2 2 12 15 29 28 18 13 30 27 26 30 -3 4 -1 7 6 7 7 0
9 5 6 10 -4 6 -3 9 2 8 11 -4 169 152 166 164 -2 4 4 8 13 8 9 0 12 5 8 12 -5
8 -2 9 9 5 10 -3 17 -2 17 4 0 15 82 95 93 91 5 -2 7 4 4 13 -4 8 -2 15 4 15
14 0 39 26 39 40 0 6 4 9 8 6 5 -3 23 13 41 34 18 22 38 37 43 33 6 -3 8 -1 5
5 -4 5 6 22 23 35 16 14 30 31 30 37 0 6 5 8 10 5 6 -3 10 1 10 9 0 9 4 16 8
16 5 0 19 9 32 20 13 11 20 20 17 20 -4 0 4 11 16 23 12 13 27 23 32 23 6 -1
9 4 8 10 -1 6 9 17 22 24 14 7 25 17 25 21 0 12 160 169 172 169 6 0 9 3 6 6
-8 8 175 190 187 186 6 -2 7 -1 3 3 -9 10 24 45 35 38 6 -3 7 -1 3 5 -3 6 3
16 14 22 11 6 18 15 15 21 -4 5 1 9 10 9 8 0 19 10 24 23 5 12 12 22 17 22 5
0 8 3 7 7 -3 8 14 12 32 8 6 -1 7 2 3 6 -4 4 3 17 17 29 13 13 21 26 18 29 -4
3 -1 6 5 6 7 0 34 23 60 50 27 28 46 50 43 50 -3 0 8 9 24 20 17 11 27 20 23
20 -5 0 0 8 10 18 9 11 19 18 22 17 3 -1 15 9 27 22 12 13 20 23 17 23 -3 0 1
6 8 14 7 8 16 12 20 10 4 -2 9 5 13 16 3 11 15 25 26 31 11 5 17 14 14 20 -4
5 -1 8 7 7 7 -2 12 3 10 10 -1 8 2 11 8 7 11 -7 56 39 65 68 4 9 10 15 15 12
5 -3 17 6 26 20 9 14 23 25 30 25 8 0 13 3 11 8 -3 9 40 52 53 52 5 0 9 3 9 8
-3 17 1 32 9 30 4 -2 33 23 65 55 33 31 56 57 52 57 -4 0 5 10 21 22 47 36 68
58 58 58 -5 0 3 8 19 18 15 10 24 22 20 25 -3 4 1 7 11 7 9 0 15 4 11 9 -3 5
4 12 15 16 11 3 20 13 20 21 0 8 4 13 9 9 5 -3 13 4 16 16 4 11 9 18 12 16 2
-3 27 19 54 49 27 30 49 52 49 49 0 -3 17 14 38 37 70 78 100 106 106 101 3
-4 6 -1 6 6 0 15 171 187 182 183 5 -1 7 4 5 11 -1 6 5 11 13 9 8 -2 12 0 8 4
-4 4 19 33 52 65 33 32 60 64 60 70 0 7 3 9 7 6 3 -4 15 5 25 20 10 16 18 24
18 18 0 -10 17 17 42 65 7 14 17 28 22 31 5 4 6 11 2 17 -3 6 -1 14 5 18 8 5
9 3 4 -7 -5 -8 -4 -11 0 -7 5 5 10 18 11 30 4 27 12 62 14 66 2 1 3 5 4 10 1
4 4 12 8 17 4 6 3 17 -2 25 -5 8 -5 21 1 31 6 12 5 20 -1 24 -8 5 -7 11 1 21
9 11 8 14 -2 14 -11 0 -11 2 1 10 8 5 10 10 4 10 -6 0 -10 10 -9 23 1 12 -1
27 -6 33 -5 6 -9 25 -11 42 -1 18 -6 32 -10 32 -4 0 -8 7 -8 15 0 8 -5 15 -12
15 -6 0 -8 3 -5 6 9 9 -22 63 -55 97 -15 15 -25 27 -22 27 3 0 -1 7 -10 15 -8
8 -19 15 -25 15 -6 0 -11 5 -11 11 0 12 -30 44 -30 32 0 -4 -6 3 -13 17 -8 14
-19 24 -25 23 -7 -2 -12 4 -12 13 0 8 -4 13 -8 10 -5 -3 -15 4 -23 15 -26 38
-57 68 -63 62 -3 -4 -6 1 -6 11 0 9 -4 14 -10 11 -5 -3 -10 1 -10 10 0 9 -4
13 -10 10 -5 -3 -10 2 -10 11 0 10 -3 15 -6 11 -8 -8 -34 18 -34 33 0 6 -3 9
-7 7 -10 -4 -53 40 -45 47 3 3 -2 6 -11 6 -9 0 -17 7 -17 16 0 8 -4 12 -10 9
-5 -3 -10 2 -10 11 0 10 -3 15 -6 12 -8 -8 -74 57 -74 73 0 7 -3 10 -6 6 -8
-8 -54 38 -54 54 0 7 -3 10 -6 6 -7 -7 -60 44 -57 55 2 4 -1 8 -6 8 -5 0 -57
47 -115 105 -58 58 -110 105 -116 105 -6 0 -8 5 -5 10 3 6 -1 13 -9 16 -9 3
-13 11 -9 17 3 6 1 7 -5 3 -6 -4 -19 5 -28 19 -9 14 -23 25 -30 25 -8 0 -13 6
-12 13 2 6 -3 11 -9 9 -7 -1 -13 4 -13 11 0 8 -11 20 -25 27 -13 7 -22 17 -19
22 3 5 -3 12 -15 15 -12 3 -21 10 -21 15 0 6 -10 19 -22 30 -56 48 -76 67 -79
75 -2 4 -18 20 -36 34 -18 15 -30 28 -28 30 1 2 -3 10 -11 17 -8 7 -14 11 -14
8 0 -3 -25 20 -55 50 -30 31 -55 60 -55 66 0 6 -2 9 -5 6 -7 -7 -195 179 -195
192 0 6 -4 8 -10 5 -5 -3 -10 -1 -10 5 0 6 -5 8 -10 5 -6 -4 -9 -2 -8 3 4 10
-204 218 -214 214 -5 -1 -8 3 -8 9 0 6 -25 34 -55 64 -30 29 -55 50 -55 48 0
-3 -10 7 -22 23 -33 42 -56 63 -61 57 -3 -2 -8 5 -12 16 -3 12 -11 21 -16 21
-13 0 -40 26 -34 32 3 3 -6 11 -20 18 -14 7 -25 17 -25 21 0 5 -11 19 -25 33
-14 14 -25 23 -25 20 0 -3 -7 1 -15 10 -8 8 -15 20 -15 26 0 6 -4 8 -10 5 -5
-3 -10 2 -10 11 0 10 -3 14 -6 11 -7 -7 -44 30 -44 45 0 4 -5 8 -11 8 -14 0
-39 25 -39 39 0 6 -4 11 -9 11 -13 0 -71 56 -71 70 0 6 -5 8 -11 5 -6 -4 -13
2 -16 14 -3 11 -9 18 -14 15 -5 -3 -13 5 -18 18 -6 13 -10 19 -10 15 -1 -12
-191 181 -191 193 0 6 -4 9 -9 8 -5 -2 -31 20 -57 47 -26 28 -49 49 -51 48
-10 -8 -23 -1 -23 13 0 8 -4 12 -10 9 -5 -3 -10 -1 -10 4 0 6 -6 11 -13 11 -7
0 -18 9 -25 20 -7 11 -18 20 -26 20 -7 0 -19 7 -26 15 -7 8 -16 12 -21 9 -5
-3 -9 1 -9 10 0 8 -8 13 -17 12 -10 -2 -25 4 -33 13 -8 9 -26 18 -40 20 -14 1
-28 8 -32 14 -4 6 -10 8 -14 4 -4 -4 -13 1 -21 11 -8 9 -12 11 -8 5 3 -7 1
-13 -4 -13 -6 0 -11 4 -11 9 0 5 -11 8 -24 7 -19 -2 -23 1 -18 13 5 14 3 14
-11 2 -9 -7 -17 -9 -17 -3 0 5 -9 8 -21 5 -12 -4 -25 0 -31 8 -7 11 -11 11
-15 2 -2 -7 -9 -13 -14 -13 -6 0 -7 6 -3 13 5 9 4 9 -6 0 -9 -8 -19 -9 -32 -2
-12 7 -18 6 -18 -1 0 -8 -6 -8 -20 0 -15 8 -20 8 -20 -1 0 -8 -4 -8 -15 1 -12
10 -15 10 -15 0 0 -10 -3 -10 -14 -1 -10 9 -16 9 -21 1z m-157 -2595 c17 1 32
-4 32 -9 0 -6 5 -4 10 4 7 11 10 11 10 2 0 -7 5 -10 10 -7 6 3 10 0 10 -7 0
-8 3 -9 8 -3 10 14 32 17 32 5 0 -5 11 -10 25 -10 14 0 25 -4 25 -9 0 -4 10
-8 23 -7 12 1 28 -5 35 -14 12 -13 12 -13 6 0 -7 13 -5 13 9 1 9 -7 15 -17 12
-21 -3 -5 3 -6 13 -3 11 2 26 -3 35 -11 8 -9 20 -16 26 -16 6 0 11 -5 11 -12
0 -6 3 -9 6 -6 3 3 17 -5 31 -18 14 -13 29 -21 34 -18 5 3 9 -4 9 -16 0 -12 5
-18 10 -15 6 3 10 1 10 -4 0 -6 7 -11 15 -11 8 0 14 -3 14 -7 -3 -20 2 -34 11
-28 6 3 13 -2 17 -12 4 -10 15 -24 25 -31 10 -7 18 -20 18 -28 0 -8 5 -14 11
-14 5 0 7 -5 4 -10 -3 -6 0 -13 9 -16 8 -3 13 -11 10 -18 -3 -7 2 -19 10 -26
9 -7 13 -16 10 -21 -3 -5 0 -9 6 -9 6 0 9 -4 5 -9 -3 -5 -1 -12 5 -16 6 -4 8
-10 5 -15 -3 -5 2 -16 11 -24 8 -9 11 -16 5 -16 -6 0 -8 -7 -5 -15 4 -8 9 -13
13 -11 4 3 6 -8 5 -22 -1 -15 3 -32 8 -39 5 -7 5 -14 -2 -18 -6 -3 -7 -12 -3
-18 13 -21 13 -121 0 -129 -9 -6 -9 -8 1 -8 6 0 12 -5 12 -11 0 -5 -5 -7 -11
-3 -7 4 -7 -1 1 -16 7 -12 8 -20 3 -17 -6 4 -10 -10 -11 -30 -1 -20 -6 -40
-12 -43 -6 -4 -10 -11 -9 -16 1 -5 0 -16 -3 -24 -4 -8 -9 -24 -14 -35 -4 -11
-8 -26 -10 -33 -1 -8 -9 -21 -18 -30 -8 -10 -15 -21 -17 -27 -3 -17 -61 -99
-85 -121 -13 -12 -24 -27 -24 -33 0 -7 -4 -9 -10 -6 -5 3 -10 -1 -10 -10 0 -9
-4 -14 -9 -10 -5 3 -20 -5 -34 -17 -41 -40 -65 -57 -71 -51 -3 4 -6 1 -6 -5 0
-6 -7 -9 -17 -5 -11 4 -14 3 -9 -5 4 -7 -3 -14 -19 -18 -14 -3 -25 -11 -25
-18 0 -7 -4 -6 -9 2 -7 11 -9 10 -15 -3 -3 -9 -10 -13 -16 -10 -5 3 -10 2 -10
-4 0 -6 -7 -8 -15 -5 -9 4 -15 0 -15 -7 0 -11 -3 -11 -10 1 -5 8 -10 10 -10 4
0 -6 -6 -11 -12 -12 -21 -1 -73 -10 -73 -12 0 -1 -30 -3 -66 -4 -36 -2 -72 -6
-79 -11 -9 -5 -11 -4 -6 3 7 11 -7 17 -29 12 -5 -1 -14 -3 -20 -4 -14 -3 -51
-25 -42 -26 5 0 0 -13 -9 -29 -10 -17 -21 -28 -26 -25 -7 5 -12 -18 -9 -38 0
-5 -3 -7 -8 -5 -5 1 -8 -1 -8 -5 1 -4 -7 -14 -18 -22 -11 -9 -16 -16 -11 -16
6 0 1 -7 -10 -16 -10 -8 -12 -13 -4 -9 8 4 4 -3 -10 -14 -14 -11 -21 -21 -16
-21 6 0 1 -7 -10 -16 -10 -8 -12 -13 -4 -9 8 4 6 -1 -5 -10 -11 -9 -19 -21
-17 -26 1 -5 -2 -9 -8 -9 -5 0 -10 -7 -10 -15 0 -8 -7 -15 -15 -15 -9 0 -12
-6 -9 -15 4 -8 1 -15 -5 -15 -6 0 -11 -5 -11 -11 0 -6 -6 -17 -12 -24 -29 -32
-38 -45 -38 -53 0 -4 -9 -18 -20 -30 -12 -12 -18 -22 -15 -22 3 0 -6 -12 -20
-27 -14 -15 -25 -33 -25 -39 0 -5 -10 -21 -22 -34 -13 -14 -22 -28 -21 -32 2
-4 -11 -22 -27 -39 -16 -18 -27 -35 -25 -37 3 -3 -3 -11 -13 -19 -11 -10 -12
-12 -2 -8 8 4 4 -3 -10 -14 -14 -11 -21 -21 -16 -21 5 0 -1 -8 -12 -19 -12
-10 -19 -21 -15 -25 3 -3 1 -6 -6 -6 -7 0 -9 -4 -6 -10 3 -5 1 -10 -4 -10 -6
0 -11 -7 -11 -16 0 -9 -5 -12 -11 -8 -7 4 -10 1 -7 -6 2 -7 -8 -27 -24 -43
-15 -17 -25 -34 -23 -38 3 -4 -2 -10 -11 -13 -8 -3 -12 -10 -9 -16 3 -5 2 -10
-3 -10 -9 0 -56 -71 -53 -78 2 -3 -14 -22 -41 -52 -9 -10 -14 -21 -10 -24 3
-3 0 -6 -7 -6 -7 0 -10 -4 -7 -9 3 -4 -6 -13 -20 -20 -15 -6 -23 -7 -19 -1 3
5 0 10 -7 10 -8 0 -20 9 -28 19 -7 11 -17 18 -22 15 -4 -3 -5 2 -2 10 4 11 0
16 -11 16 -9 0 -13 5 -10 10 3 6 2 10 -4 10 -15 0 -387 371 -383 383 2 5 -4 7
-12 4 -9 -4 -17 1 -21 14 -4 10 -11 17 -16 14 -5 -4 -9 0 -9 7 0 7 -9 19 -20
26 -12 7 -18 18 -14 24 4 6 3 8 -4 4 -6 -3 -19 4 -29 16 -10 13 -30 31 -45 41
-16 10 -28 24 -28 33 0 8 -4 12 -10 9 -5 -3 -10 -2 -10 4 0 14 -47 60 -54 53
-3 -3 -6 2 -6 11 0 10 -6 17 -14 17 -8 0 -18 9 -21 20 -4 11 -11 18 -16 15 -5
-4 -9 1 -9 9 0 9 -4 16 -8 16 -5 0 -32 23 -60 50 -28 28 -47 50 -41 50 6 0 9
7 5 15 -3 8 -2 14 2 14 20 -3 34 4 62 31 32 31 46 39 34 18 -4 -7 2 -4 13 7
11 11 18 23 16 28 -2 4 -1 7 4 6 15 -4 43 13 37 22 -3 5 2 6 10 3 9 -3 16 -1
16 5 0 6 7 11 16 11 8 0 12 5 9 10 -6 9 8 14 28 11 4 0 7 6 7 15 0 8 4 13 9 9
6 -3 19 5 30 17 12 12 21 18 21 13 0 -4 9 3 21 16 11 13 25 24 31 24 5 0 16 8
23 18 7 10 16 18 19 18 20 -3 26 0 21 9 -3 6 1 10 9 10 9 0 16 5 16 10 0 6 3
9 8 9 19 -3 33 2 27 11 -3 6 3 10 15 10 12 0 19 4 16 9 -3 5 8 14 24 21 17 7
30 17 30 22 0 5 8 12 18 15 9 4 23 12 30 17 7 6 18 16 25 21 7 6 38 27 70 49
31 21 57 43 57 48 0 5 5 6 10 3 6 -3 10 -1 10 5 0 6 5 8 10 5 6 -3 10 -3 10 2
0 4 20 21 45 36 25 16 45 34 45 40 0 5 3 8 6 4 6 -5 15 0 49 31 8 7 15 10 15
5 0 -4 5 0 11 10 5 9 16 17 23 17 8 0 16 7 20 15 3 8 12 15 20 15 7 0 17 7 20
16 3 8 10 12 16 9 6 -3 13 1 16 9 3 9 12 16 20 16 8 0 14 7 14 15 0 8 4 15 9
15 10 0 2 50 -11 67 -5 7 -5 14 2 18 5 3 10 11 10 16 0 6 -4 7 -10 4 -12 -7
-2 23 14 44 8 11 8 13 -1 8 -6 -4 -14 -3 -18 3 -3 5 -2 10 3 10 6 0 13 7 16
16 3 9 2 12 -5 9 -6 -4 -8 2 -4 17 4 13 8 33 10 44 2 10 4 19 5 19 1 0 3 11 6
24 2 14 10 31 17 40 9 12 9 13 0 7 -9 -5 -11 -2 -7 8 3 9 10 16 14 16 5 0 7 9
5 20 -2 11 3 24 13 29 9 5 16 12 15 15 -6 14 -2 27 6 21 6 -3 8 4 6 15 -2 11
0 18 6 15 5 -4 9 -1 9 4 0 21 3 26 21 39 11 7 19 20 19 28 0 8 7 14 15 14 8 0
14 4 13 8 -4 11 117 126 133 127 3 0 13 8 23 18 20 20 30 22 21 5 -4 -7 0 -5
9 6 8 10 20 15 27 10 8 -4 10 -3 5 4 -7 11 -3 14 27 16 6 1 20 7 29 15 16 14
42 21 81 22 9 0 17 4 17 10 0 5 5 9 11 9 5 0 7 -6 3 -12 -6 -9 -3 -9 9 0 9 8
20 11 26 8 5 -3 12 0 14 6 4 10 8 9 16 -2 7 -10 11 -11 11 -3 0 9 11 11 35 8
26 -3 34 -1 28 8 -5 9 -3 9 8 1 8 -5 29 -9 47 -9z"/>
<path d="M560 3976 c0 -2 8 -10 18 -17 15 -13 16 -12 3 4 -13 16 -21 21 -21
13z"/>
</g>
</svg>
